<svg xmlns="http://www.w3.org/2000/svg" viewBox="0 0 85.64 33.47"><defs><style>.cls-1{fill:#fff;}.cls-2{fill:#00b5e1;}</style></defs><g id="Layer_2" data-name="Layer 2"><g id="Layer_2-2" data-name="Layer 2"><path class="cls-1" d="M5.66,13.66a2.93,2.93,0,0,0-1.31-.3,3,3,0,0,0-1.64.46,3.13,3.13,0,0,0-1.12,1.37,5.07,5.07,0,0,0-.41,2.12,4.11,4.11,0,0,0,.87,2.84,2.81,2.81,0,0,0,2.18,1,2.6,2.6,0,0,0,1.32-.34,2.73,2.73,0,0,0,1-.88,1.84,1.84,0,0,0,.36-1V14.57a4.79,4.79,0,0,0-1.21-.91M6.9,21.6v-.8c0-.1,0-.16-.07-.16s-.07,0-.13.09a6.1,6.1,0,0,1-1.14.9A3.24,3.24,0,0,1,3.92,22a3.85,3.85,0,0,1-2-.52A3.58,3.58,0,0,1,.51,19.92,5.75,5.75,0,0,1,0,17.38a6,6,0,0,1,.52-2.57A4,4,0,0,1,2,13.07a3.82,3.82,0,0,1,2.15-.62,3.5,3.5,0,0,1,1.4.26,4.16,4.16,0,0,1,1.08.68.54.54,0,0,0,.17.09q.09,0,.09-.21V9.16c0-.14.06-.21.19-.21h.78A.17.17,0,0,1,8,9.14V21.58a.22.22,0,0,1-.25.25H7.13a.21.21,0,0,1-.23-.23"/><path class="cls-1" d="M16.24,17.07l-1.3.11c-2.38.17-3.58.9-3.58,2.18a1.54,1.54,0,0,0,.58,1.27,2.34,2.34,0,0,0,1.52.47,3.14,3.14,0,0,0,1.13-.21,3.68,3.68,0,0,0,1-.56,2,2,0,0,0,.9-1.47V17.33c0-.2-.09-.28-.26-.26m-1.42,4.6a4.21,4.21,0,0,1-1.69.33A3.19,3.19,0,0,1,11,21.32a2.3,2.3,0,0,1-.78-1.84,2.45,2.45,0,0,1,1.14-2.13,6.76,6.76,0,0,1,3.32-.94l1.55-.12c.19,0,.29-.11.29-.26v-.5a2.09,2.09,0,0,0-.63-1.6,2.43,2.43,0,0,0-1.71-.59,3.17,3.17,0,0,0-2.66,1.47.22.22,0,0,1-.1.11.17.17,0,0,1-.12,0l-.71-.29c-.05,0-.07,0-.07-.09a.2.2,0,0,1,.05-.14A3.83,3.83,0,0,1,12,13a4.54,4.54,0,0,1,2.19-.52,3.7,3.7,0,0,1,2.51.79,2.8,2.8,0,0,1,.89,2.2V21.6c0,.15-.07.23-.21.23h-.64c-.14,0-.21-.08-.21-.23l0-.9c0-.08-.05-.12-.09-.12a.23.23,0,0,0-.14.08,4.78,4.78,0,0,1-1.47,1"/><path class="cls-1" d="M22.4,13.51a.13.13,0,0,0-.14.14v5.83a1.86,1.86,0,0,0,.25,1.15,1,1,0,0,0,.84.29h1.27c.12,0,.17.06.17.18v.46c0,.1-.05.16-.17.2a11.92,11.92,0,0,1-1.51.07,2,2,0,0,1-1.53-.5,2.28,2.28,0,0,1-.46-1.6V13.67a.15.15,0,0,0-.16-.16H19.49c-.11,0-.16,0-.16-.14v-.6a.12.12,0,0,1,.14-.14H21c.06,0,.1-.05.12-.14l.18-2.78c0-.14.05-.2.15-.2h.63c.12,0,.19.07.19.22v2.76c0,.09,0,.14.12.14h2.29a.12.12,0,0,1,.14.14v.6c0,.1,0,.14-.16.14Z"/><path class="cls-1" d="M31.29,20.63a6.88,6.88,0,0,0,1.52-1.22V12.84c0-.14.07-.21.22-.21h.73a.18.18,0,0,1,.2.21v8.79c0,.13-.06.2-.18.2H33c-.11,0-.17-.06-.17-.18V20.59c0-.05,0-.09,0-.1s-.07,0-.12.05A7.27,7.27,0,0,1,31,21.68a3.85,3.85,0,0,1-1.5.32,2.88,2.88,0,0,1-2-.72,2.43,2.43,0,0,1-.8-1.88V12.85a.2.2,0,0,1,.23-.22h.73c.12,0,.19.07.19.21V19a2.06,2.06,0,0,0,.52,1.48,1.82,1.82,0,0,0,1.4.55,3,3,0,0,0,1.52-.41"/><path class="cls-1" d="M36.84,21.62v-8.8c0-.13,0-.19.17-.19h.75a.15.15,0,0,1,.17.17v1c0,.12,0,.14.16.05a9.54,9.54,0,0,1,1.64-1.09,3.16,3.16,0,0,1,1.48-.34,2.68,2.68,0,0,1,1.6.45A2.17,2.17,0,0,1,43.67,14a.1.1,0,0,0,.07.06.36.36,0,0,0,.18-.09,10,10,0,0,1,1.65-1.13,3.36,3.36,0,0,1,1.52-.35,2.64,2.64,0,0,1,1.95.71,2.59,2.59,0,0,1,.69,1.9V21.6c0,.15-.08.22-.23.22h-.73a.18.18,0,0,1-.14,0,.22.22,0,0,1-.05-.16V15.35c0-1.29-.59-1.94-1.78-1.94a2.83,2.83,0,0,0-1.4.36,7.22,7.22,0,0,0-1.28.89,1.06,1.06,0,0,0-.21.25.54.54,0,0,0-.06.27V21.6c0,.15-.07.22-.21.22h-.73a.18.18,0,0,1-.21-.2V15.35c0-1.29-.59-1.94-1.79-1.94a2.85,2.85,0,0,0-1.36.33A10,10,0,0,0,38,14.88v6.74c0,.13-.07.2-.22.2H37a.18.18,0,0,1-.2-.2"/><path class="cls-2" d="M72.75,21.83h1.86a.51.51,0,0,0,.34-.1.39.39,0,0,0,.11-.3v-6a4.15,4.15,0,0,1,.94-.82,1.93,1.93,0,0,1,1-.26,1.29,1.29,0,0,1,.94.32,1.22,1.22,0,0,1,.32.91v5.87a.38.38,0,0,0,.07.27.35.35,0,0,0,.26.08h1.93a.37.37,0,0,0,.41-.42V15.2a2.55,2.55,0,0,0-2.74-2.75,3.32,3.32,0,0,0-1.51.36,6.26,6.26,0,0,0-1.42,1,.19.19,0,0,1-.12.07c-.06,0-.09,0-.09-.14v-.84c0-.2-.09-.3-.26-.3h-2.1c-.18,0-.28.11-.28.33v8.52a.34.34,0,0,0,.09.27.43.43,0,0,0,.28.08m-2.29-8.9c0-.2-.09-.3-.26-.3H68.08c-.2,0-.29.11-.29.33v8.5a.38.38,0,0,0,.08.28.41.41,0,0,0,.3.09H70a.55.55,0,0,0,.36-.1.41.41,0,0,0,.11-.32Zm0-3.65A.32.32,0,0,0,70.41,9a.24.24,0,0,0-.2-.09H68.06c-.19,0-.29.11-.29.35v1.82a.47.47,0,0,0,.08.3.38.38,0,0,0,.3.1H70c.32,0,.47-.15.47-.44ZM59.89,19.45V15.53a1.28,1.28,0,0,1,.5-1,1.85,1.85,0,0,1,1.22-.42,1.68,1.68,0,0,1,1.42.68,3.94,3.94,0,0,1,.5,2.29c0,2.14-.66,3.2-2,3.2a1.78,1.78,0,0,1-.89-.22,3.19,3.19,0,0,1-.78-.64m-.37-6.82h-1.9a.46.46,0,0,0-.31.09.37.37,0,0,0-.09.29V24.38a.32.32,0,0,0,.07.23.3.3,0,0,0,.21.08h2.13c.17,0,.26-.1.26-.3V21.22q0-.24.09-.24a.56.56,0,0,1,.24.13,3.52,3.52,0,0,0,5-.34,5.57,5.57,0,0,0,1-3.61,5.4,5.4,0,0,0-1-3.51,3.45,3.45,0,0,0-4-.91,5.13,5.13,0,0,0-1.1.79.39.39,0,0,1-.17.09s-.07,0-.07-.12V13a.34.34,0,0,0-.09-.27.45.45,0,0,0-.3-.08m-7.35,4.11A16.74,16.74,0,1,1,68.9,33.47,16.73,16.73,0,0,1,52.17,16.74"/></g></g></svg>