<svg xmlns="http://www.w3.org/2000/svg" xmlns:xlink="http://www.w3.org/1999/xlink" viewBox="0 0 197.47 33.07"><defs><style>.cls-1,.cls-5{opacity:0.74;}.cls-1{fill:url(#linear-gradient);}.cls-2{fill:url(#linear-gradient-2);}.cls-3{fill:url(#linear-gradient-3);}.cls-4,.cls-7{fill-opacity:0.5;opacity:0.5;}.cls-4{fill:url(#linear-gradient-4);}.cls-5{fill:url(#linear-gradient-5);}.cls-6{fill:url(#linear-gradient-6);}.cls-7{fill:url(#linear-gradient-7);}.cls-8{fill:#f39200;opacity:0.76;}</style><linearGradient id="linear-gradient" x1="65.77" y1="147.07" x2="95.16" y2="147.07" gradientTransform="translate(16.54 -130.64)" gradientUnits="userSpaceOnUse"><stop offset="0.24" stop-color="#fff"/><stop offset="0.52" stop-color="#9d9d9d"/><stop offset="0.85" stop-color="#2d2d2d"/><stop offset="1"/></linearGradient><linearGradient id="linear-gradient-2" x1="65.77" y1="50.42" x2="98.61" y2="50.42" gradientTransform="translate(245.81 -65.76) rotate(90)" gradientUnits="userSpaceOnUse"><stop offset="0" stop-color="#fff"/><stop offset="0.21" stop-color="#fcfcfc"/><stop offset="0.35" stop-color="#f4f4f4"/><stop offset="0.46" stop-color="#e5e5e5"/><stop offset="0.56" stop-color="#d0d0d0"/><stop offset="0.66" stop-color="#b5b5b5"/><stop offset="0.75" stop-color="#949494"/><stop offset="0.83" stop-color="#6c6c6c"/><stop offset="0.91" stop-color="#3e3e3e"/><stop offset="0.98" stop-color="#0c0c0c"/><stop offset="1"/></linearGradient><linearGradient id="linear-gradient-3" x1="65.76" y1="238.67" x2="98.62" y2="238.67" gradientTransform="translate(242.83 -65.76) rotate(90)" xlink:href="#linear-gradient-2"/><linearGradient id="linear-gradient-4" x1="65.76" y1="144.99" x2="98.62" y2="144.99" gradientTransform="translate(245.81 -65.76) rotate(90)" gradientUnits="userSpaceOnUse"><stop offset="0" stop-color="#fff"/><stop offset="0.18" stop-color="#fcfcfc"/><stop offset="0.29" stop-color="#f4f4f4"/><stop offset="0.39" stop-color="#e5e5e5"/><stop offset="0.47" stop-color="#d1d1d0"/><stop offset="0.55" stop-color="#b7b7b6"/><stop offset="0.55" stop-color="#b4b4b3"/><stop offset="0.61" stop-color="#a8a8a7"/><stop offset="0.7" stop-color="#878787"/><stop offset="0.83" stop-color="#535353"/><stop offset="0.98" stop-color="#0b0b0b"/><stop offset="1"/></linearGradient><linearGradient id="linear-gradient-5" x1="65.77" y1="-78.59" x2="95.16" y2="-78.59" gradientTransform="matrix(0, 1, 1, 0, 82.75, -65.76)" xlink:href="#linear-gradient"/><linearGradient id="linear-gradient-6" x1="65.77" y1="-80.67" x2="98.61" y2="-80.67" gradientTransform="matrix(0, 1, 1, 0, 82.75, -65.76)" xlink:href="#linear-gradient-2"/><linearGradient id="linear-gradient-7" x1="65.77" y1="-80.67" x2="98.61" y2="-80.67" gradientTransform="matrix(0, 1, 1, 0, 82.75, -65.76)" xlink:href="#linear-gradient-4"/></defs><g id="Layer_2" data-name="Layer 2"><g id="Layer_2-2" data-name="Layer 2"><rect class="cls-1" x="82.32" y="-78.14" width="32.84" height="189.15" transform="translate(115.16 -82.3) rotate(90)"/><polygon class="cls-2" points="197.47 6.49 197.47 26.37 193.31 32.85 193.31 0.01 197.47 6.49"/><line class="cls-3" x1="4.16" x2="4.16" y2="32.86"/><polygon class="cls-4" points="4.16 32.86 4.16 32.85 193.31 32.85 197.47 26.37 197.47 6.49 193.31 0.01 4.16 0.01 4.16 0 4.16 32.86"/><line class="cls-5" x1="4.16" y1="32.85" x2="4.16" y2="0.01"/><polygon class="cls-6" points="0 6.49 0 26.37 4.16 32.85 4.16 0.01 0 6.49"/><polyline class="cls-7" points="4.16 32.85 0 26.37 0 6.49 4.16 0.01"/><polygon class="cls-8" points="197.47 26.59 197.47 26.59 197.47 6.71 197.47 6.71 193.31 0.23 4.16 0.23 4.16 0.23 4.16 0.23 4.16 0.23 0 6.71 0 6.71 0 6.71 0 26.59 4.16 33.07 193.31 33.07 197.47 26.59"/></g></g></svg>