<svg xmlns="http://www.w3.org/2000/svg" xmlns:xlink="http://www.w3.org/1999/xlink" viewBox="0 0 99.3 55.59"><defs><style>.cls-1{opacity:0.74;fill:url(#linear-gradient);}.cls-2{fill:url(#linear-gradient-2);}.cls-3{fill:url(#linear-gradient-3);}.cls-4{fill-opacity:0.5;opacity:0.5;fill:url(#linear-gradient-4);}.cls-5{fill:#46b8af;opacity:0.75;}</style><linearGradient id="linear-gradient" x1="20" y1="28.43" x2="73.51" y2="28.43" gradientUnits="userSpaceOnUse"><stop offset="0.24" stop-color="#fff"/><stop offset="0.52" stop-color="#9d9d9d"/><stop offset="0.85" stop-color="#2d2d2d"/><stop offset="1"/></linearGradient><linearGradient id="linear-gradient-2" x1="13.69" y1="5.11" x2="73.48" y2="5.11" gradientUnits="userSpaceOnUse"><stop offset="0" stop-color="#fff"/><stop offset="0.21" stop-color="#fcfcfc"/><stop offset="0.35" stop-color="#f4f4f4"/><stop offset="0.46" stop-color="#e5e5e5"/><stop offset="0.56" stop-color="#d0d0d0"/><stop offset="0.66" stop-color="#b5b5b5"/><stop offset="0.75" stop-color="#949494"/><stop offset="0.83" stop-color="#6c6c6c"/><stop offset="0.91" stop-color="#3e3e3e"/><stop offset="0.98" stop-color="#0c0c0c"/><stop offset="1"/></linearGradient><linearGradient id="linear-gradient-3" x1="-9.52" y1="48.15" x2="89.29" y2="48.15" gradientTransform="translate(0 2.97)" xlink:href="#linear-gradient-2"/><linearGradient id="linear-gradient-4" x1="-42.32" y1="27.79" x2="56.49" y2="27.79" gradientUnits="userSpaceOnUse"><stop offset="0" stop-color="#fff"/><stop offset="0.09" stop-color="#f3f3f3"/><stop offset="0.25" stop-color="#d3d3d3"/><stop offset="0.46" stop-color="#a0a0a0"/><stop offset="0.71" stop-color="#585858"/><stop offset="1"/></linearGradient></defs><g id="Layer_2" data-name="Layer 2"><g id="Layer_2-2" data-name="Layer 2"><rect class="cls-1" x="20" y="10.22" width="59.79" height="36.44"/><polygon class="cls-2" points="31.8 0 68 0 79.79 10.22 20 10.22 31.8 0"/><polygon class="cls-3" points="19.98 46.65 79.82 46.65 99.3 55.59 0.49 55.59 19.98 46.65"/><polygon class="cls-4" points="79.32 46.65 79.3 46.65 79.3 10.22 67.51 0 31.3 0 19.51 10.22 19.51 46.65 19.49 46.65 0 55.59 98.81 55.59 79.32 46.65"/><polygon class="cls-5" points="99.3 55.59 79.82 46.65 79.79 46.65 79.79 10.22 68 0 67.51 0 31.8 0 31.3 0 19.51 10.22 19.51 46.65 19.49 46.65 0 55.59 98.81 55.59 98.81 55.59 99.3 55.59"/></g></g></svg>