<svg xmlns="http://www.w3.org/2000/svg" xmlns:xlink="http://www.w3.org/1999/xlink" viewBox="0 0 74.19 253.99"><defs><style>.cls-1,.cls-5{opacity:0.74;}.cls-1{fill:url(#linear-gradient);}.cls-2{fill:url(#linear-gradient-2);}.cls-3{fill:url(#linear-gradient-3);}.cls-4,.cls-7{fill-opacity:0.5;opacity:0.5;}.cls-4{fill:url(#linear-gradient-4);}.cls-5{fill:url(#linear-gradient-5);}.cls-6{fill:url(#linear-gradient-6);}.cls-7{fill:url(#linear-gradient-7);}.cls-8{fill:#46b8af;opacity:0.75;}</style><linearGradient id="linear-gradient" x1="0.03" y1="126.99" x2="66.33" y2="126.99" gradientUnits="userSpaceOnUse"><stop offset="0.24" stop-color="#fff"/><stop offset="0.52" stop-color="#9d9d9d"/><stop offset="0.85" stop-color="#2d2d2d"/><stop offset="1"/></linearGradient><linearGradient id="linear-gradient-2" x1="0.03" y1="5.25" x2="74.11" y2="5.25" gradientUnits="userSpaceOnUse"><stop offset="0" stop-color="#fff"/><stop offset="0.21" stop-color="#fcfcfc"/><stop offset="0.35" stop-color="#f4f4f4"/><stop offset="0.46" stop-color="#e5e5e5"/><stop offset="0.56" stop-color="#d0d0d0"/><stop offset="0.66" stop-color="#b5b5b5"/><stop offset="0.75" stop-color="#949494"/><stop offset="0.83" stop-color="#6c6c6c"/><stop offset="0.91" stop-color="#3e3e3e"/><stop offset="0.98" stop-color="#0c0c0c"/><stop offset="1"/></linearGradient><linearGradient id="linear-gradient-3" x1="0" y1="240.52" x2="74.14" y2="240.52" gradientTransform="translate(0 2.97)" xlink:href="#linear-gradient-2"/><linearGradient id="linear-gradient-4" x1="0.05" y1="121.75" x2="74.19" y2="121.75" gradientUnits="userSpaceOnUse"><stop offset="0" stop-color="#fff"/><stop offset="0.18" stop-color="#fcfcfc"/><stop offset="0.29" stop-color="#f4f4f4"/><stop offset="0.39" stop-color="#e5e5e5"/><stop offset="0.47" stop-color="#d1d1d0"/><stop offset="0.55" stop-color="#b7b7b6"/><stop offset="0.55" stop-color="#b4b4b3"/><stop offset="0.61" stop-color="#a8a8a7"/><stop offset="0.7" stop-color="#878787"/><stop offset="0.83" stop-color="#535353"/><stop offset="0.98" stop-color="#0b0b0b"/><stop offset="1"/></linearGradient><linearGradient id="linear-gradient-5" x1="0.03" y1="480.85" x2="66.33" y2="480.85" gradientTransform="matrix(1, 0, 0, -1, 0, 724.34)" xlink:href="#linear-gradient"/><linearGradient id="linear-gradient-6" x1="0.03" y1="475.6" x2="74.11" y2="475.6" gradientTransform="matrix(1, 0, 0, -1, 0, 724.34)" xlink:href="#linear-gradient-2"/><linearGradient id="linear-gradient-7" x1="0.03" y1="475.6" x2="74.11" y2="475.6" gradientTransform="matrix(1, 0, 0, -1, 0, 724.34)" xlink:href="#linear-gradient-4"/></defs><g id="Layer_2" data-name="Layer 2"><g id="Layer_2-2" data-name="Layer 2"><rect class="cls-1" x="0.03" y="10.49" width="74.08" height="233"/><polygon class="cls-2" points="14.64 0 59.5 0 74.11 10.49 0.03 10.49 14.64 0"/><line class="cls-3" y1="243.49" x2="74.14" y2="243.49"/><polygon class="cls-4" points="74.19 243.49 74.16 243.49 74.16 10.49 59.55 0 14.69 0 0.08 10.49 0.08 243.49 0.05 243.49 74.19 243.49"/><line class="cls-5" x1="74.11" y1="243.49" x2="0.03" y2="243.49"/><polygon class="cls-6" points="14.64 253.99 59.5 253.99 74.11 243.49 0.03 243.49 14.64 253.99"/><polyline class="cls-7" points="74.11 243.49 59.5 253.99 14.64 253.99 0.03 243.49"/><polygon class="cls-8" points="59.5 0 59.5 0 14.64 0 14.64 0 0.03 10.49 0.03 243.49 0.03 243.49 0.03 243.49 0.03 243.49 14.64 253.99 14.64 253.99 14.64 253.99 59.5 253.99 74.11 243.49 74.11 10.49 59.5 0"/></g></g></svg>